<?xml version="1.0" encoding="UTF-8"?><svg id="Layer_2" xmlns="http://www.w3.org/2000/svg" viewBox="0 0 2082.17 401.77"><defs><style>.cls-1{fill:#fff;}</style></defs><g id="Layer_1-2"><g id="FINAL_"><g><g id="cyberpunk"><g id="punk"><path class="cls-1" d="M1342.64,8.87c-10.74-6.08-23.07-9.06-36.64-8.86h-150.63V17.84c0,7.78,2.85,14.51,8.46,19.98,5.56,5.43,12.4,8.19,20.3,8.19h122.64c6.77,0,12.22,2.05,16.65,6.25,4.32,4.11,6.42,8.93,6.42,14.75s-2.13,10.61-6.52,14.71c-4.54,4.23-9.76,6.29-15.96,6.29h-152V223.01h23.85c6.46,0,12.33-2.39,16.96-6.9,4.7-4.58,7.19-10.37,7.19-16.76v-65.33h104.47c12.77,0,24.58-3.03,35.11-9.01,10.49-5.96,18.96-14.09,25.15-24.16,6.27-10.18,9.45-21.57,9.45-33.83s-3.17-23.37-9.43-33.65c-6.2-10.18-14.77-18.42-25.48-24.49Z"/><path class="cls-1" d="M1480.31,173.09c-11.64-5.53-20.97-13.66-27.76-24.18-6.85-10.6-10.18-21.78-10.18-34.17V17.07c0-4.56-1.74-8.72-5.05-12.03-3.3-3.29-7.57-5.03-12.35-5.03h-29.6V114.74c0,16.4,3.52,32.02,10.47,46.41,6.91,14.33,16.61,26.87,28.82,37.25,12.2,10.38,26.43,18.11,42.31,22.97l18.4,5.7v-29.81c.24-10.92-4.95-19.27-15.06-24.18Z"/><path class="cls-1" d="M1586.39,5.04c-3.28,3.29-5.02,7.45-5.02,12.02V114.74c0,12.57-3.31,23.79-10.11,34.3-6.75,10.42-16.04,18.52-27.67,24.08-9.96,4.86-15.22,13.18-15.22,24.07l.45,29.85,18.17-5.65c16.25-4.87,30.67-12.71,42.86-23.32,12.17-10.6,21.79-23.34,28.57-37.88,6.81-14.6,10.16-30.43,9.95-46.93V0h-29.7c-4.75,0-9,1.74-12.28,5.04Z"/><path class="cls-1" d="M1817.45,6.75c-4.63,4.47-7.08,10.31-7.08,16.87v126.01L1699.62,7.39l-.07-.08c-3.83-4.77-9.06-7.29-15.14-7.29h-38.04V134.01h23.85c6.51,0,12.19-2.25,16.88-6.68,4.76-4.5,7.27-10.38,7.27-17.02v-37.35l109.88,142.64,.07,.09c3.81,4.79,9.02,7.32,15.07,7.32h38.98V0h-24c-6.5,0-12.35,2.33-16.92,6.74Z"/><path class="cls-1" d="M2082.17,0h-57.31c-9.73,0-18.48,3.2-25.95,9.47l-123.7,101.87,123.74,102.22c7.7,6.26,16.42,9.44,25.92,9.44h57.27l-135.31-111.64L2082.17,0Z"/></g><g id="cyber"><path class="cls-1" d="M194.37,7.01v9.17c0,2.78-1,5.12-2.98,7-1.99,1.89-4.27,2.83-6.85,2.83H104.7c-11.72,0-22.74,2.23-33.07,6.7-10.33,4.47-19.42,10.63-27.26,18.47-7.85,7.85-14,16.93-18.47,27.26-4.47,10.33-6.7,21.35-6.7,33.07s2.23,22.99,6.7,33.22c4.47,10.23,10.62,19.27,18.47,27.11,7.84,7.85,16.93,14,27.26,18.47,10.32,4.47,21.35,6.7,33.07,6.7h79.84c2.58,0,4.86,1,6.85,2.98,1.98,1.99,2.98,4.27,2.98,6.85v9.17H99.42c-13.93-.79-26.92-4.03-38.96-9.7-12.05-5.67-22.59-13.24-31.65-22.69-9.06-9.45-16.12-20.35-21.2-32.69C2.54,138.58,0,125.44,0,111.51s2.54-27.02,7.61-39.26c5.08-12.24,12.14-23.14,21.2-32.69,9.06-9.55,19.6-17.17,31.65-22.84,12.04-5.67,25.03-8.81,38.96-9.4"/><path class="cls-1" d="M231.77,6.01c5.38,0,10.05,1.99,14.04,5.97,.4,.4,.99,1,1.79,1.79,.79,.8,2.64,2.59,5.53,5.38,2.88,2.79,7.57,7.47,14.04,14.04,6.47,6.57,15.48,15.83,27.03,27.78l-4.48,4.78c-2.19,1.99-4.73,3.04-7.62,3.14-2.89,.1-5.43-.94-7.62-3.14L215.64,6.01h16.13Zm98.87,210h-10.27V114.02l-2.58-2.99L413.68,12.76c3.98-4.18,8.66-6.27,14.04-5.75h16.13l-104.48,107.01v92.6c-.37,2.39-1.22,4.48-2.91,6.27-1.69,1.79-3.64,2.69-5.82,3.12Z"/><path class="cls-1" d="M612.88,6.71c10.56,0,20.13,2.59,28.7,7.77,8.57,5.19,15.45,12.06,20.63,20.63,5.18,8.57,7.77,18.14,7.77,28.7,0,13.36-4.19,25.22-12.56,35.58l-6.28,8.07,8.07,5.98c7.18,5.38,12.81,12.11,16.89,20.18,4.08,8.07,6.13,16.59,6.13,25.56,0,9.77-2.29,18.79-6.88,27.06-4.59,8.27-10.82,15.05-18.69,20.33-7.88,5.28-16.59,8.42-26.16,9.42h-164.15v-9c0-2.62,1.01-4.95,3.03-6.97,2.02-2.02,4.34-3.03,6.97-3.03h153.09c6.47-.2,12.48-2.07,18.04-5.61,5.56-3.53,10-8.13,13.34-13.79,3.34-5.66,5-12.02,5-19.1s-1.72-13.54-5.15-19.4c-3.44-5.86-8.09-10.51-13.94-13.94-5.86-3.43-12.33-5.15-19.4-5.15l-151.38,1c-2.59-.41-4.88-1.41-6.87-3.4-1.99-1.99-2.72-7.17-2.72-7.17v-8.43l146.04-.3c6.95,0,13.31-1.69,19.07-5.07,5.76-3.38,10.33-7.94,13.71-13.71,3.38-5.76,5.07-12.12,5.07-19.07s-1.69-13.31-5.07-19.07c-3.38-5.76-7.95-10.33-13.71-13.71-5.76-3.38-12.12-5.07-19.07-5.07h-136.2c-2.58,0-4.87-.99-6.85-2.98-1.99-1.98-2.98-4.37-2.98-7.15V6.71"/><path class="cls-1" d="M702.37,22.74V7.01h194V15.92c0,2.77-1,5.15-2.98,7.13-1.99,1.98-4.27,2.97-6.85,2.97h-181.19c-1.99,0-2.98-1.09-2.98-3.27Zm175,88.01c0,2.82-.95,5.23-2.83,7.24-1.89,2.01-4.22,3.02-7.01,3.02h-165.16v-16.31c0-1.48,1.2-2.69,2.69-2.69h172.31v8.75Zm22,105.25h-197v-16.31c0-1.48,1.2-2.69,2.69-2.69h184.48c2.78,0,5.11,1.01,7,3.02,1.89,2.01,2.83,4.33,2.83,6.94v9.05Z"/><path class="cls-1" d="M1131.85,215.01h-17.65c-1.82,0-3.5-.23-5.04-.69-1.08-.33-2.07-.88-2.98-1.55l-.11-.08c-.6-.44-1.14-.97-1.6-1.56-1.9-2.44-4.32-5.44-7.25-8.99l-83.1-102.12h48.29c7.27,0,13.76-1.72,19.46-5.16,5.7-3.44,10.17-7.96,13.42-13.56,3.24-5.6,4.96-11.74,5.16-18.43-.2-6.49-1.92-12.53-5.16-18.13-3.24-5.6-7.72-10.12-13.42-13.56-5.7-3.44-12.19-5.16-19.46-5.16l-125.3-.29c-3.93,0-7.37-1.42-10.32-4.27-2.95-2.85-4.42-6.34-4.42-10.47V6.01h140.5c10.76-.2,20.58,2.2,29.45,7.17,8.87,4.98,15.94,11.81,21.22,20.48,5.28,8.67,8.02,18.29,8.22,28.85-.2,10.57-2.94,20.18-8.22,28.85-5.28,8.67-12.36,15.54-21.22,20.63-8.87,5.08-18.68,7.43-29.45,7.03h-8.24"/></g></g><g id="city"><path class="cls-1" d="M1613.4,218.8c1.14,.66,2.46,.71,3.96,.14,1.5-.57,2.9-1.45,4.21-2.64,1.31-1.19,2.42-2.64,3.34-4.34,.92-1.7,1.45-3.36,1.58-4.99,.16-1.48,.03-3.14-.38-4.96-.41-1.81-1.04-3.41-1.88-4.79-.84-1.37-1.87-2.42-3.1-3.14-1.23-.72-2.59-.79-4.08-.22-1.5,.57-3.15,1.86-4.96,3.87-1.81,2.01-3.21,4.31-4.18,6.9-.98,2.59-1.15,5.17-.52,7.75,.62,2.58,2.63,4.72,6,6.42Z"/><path class="cls-1" d="M1790.43,223c-1.31-1.94-3.89-2.7-7.74-2.27-1.58,.15-3.1,.58-4.57,1.29-1.36,.55-2.84,1.37-4.46,2.47-1.62,1.1-3.21,2.53-4.78,4.28,2.7,1.98,4.18,4.47,4.45,7.48,.27,3.01,.39,7.21,.38,12.6-.21,2.81-.73,6.04-1.58,9.69-.85,3.65-1.9,7.42-3.14,11.29-1.25,3.88-2.68,7.75-4.28,11.61-1.61,3.87-3.33,7.36-5.15,10.47-1.83,3.11-3.72,5.68-5.67,7.72-1.95,2.04-3.84,3.23-5.67,3.57-3.8,.71-6.59-.56-8.36-3.8-1.77-3.24-2.61-8.15-2.52-14.72-.12-1.43,.07-3.91,.58-7.43,.51-3.52,1.1-7.38,1.78-11.59,.67-4.2,1.3-8.29,1.87-12.26,.57-3.97,.92-7.2,1.04-9.7,.29-4.71-.09-8.14-1.15-10.28-1.05-2.13-3.53-3.13-7.44-2.99-1.58,.15-3.12,.44-4.65,.86-1.36,.55-2.87,1.23-4.54,2.05-1.67,.82-3.37,2.05-5.11,3.68,2.44,2.17,3.63,5.23,3.56,9.17-.07,3.95-.45,8.75-1.14,14.42-.21,1.21-.47,3.18-.75,5.93-.29,2.75-.56,5.82-.8,9.22-.1,1.46-.18,2.95-.25,4.46-1.88,3.28-3.92,6.63-6.12,10.06-2.65,4.14-5.33,7.98-8.01,11.54-2.69,3.56-5.38,6.5-8.08,8.83-2.7,2.33-5.13,3.54-7.3,3.65-2.7,.36-5.11-.07-7.23-1.28-1.81-1.12-3.54-3.17-5.19-6.14-1.65-2.97-2.61-7.56-2.89-13.78,2.09-9.13,3.92-17.7,5.48-25.72,1.57-8.01,2.87-15.1,3.91-21.27,1.16-7.06,2.13-13.58,2.92-19.56,.4-2.55,.64-4.96,.73-7.24,.09-2.27,.2-4.59,.35-6.95,1.13-.21,2.21-.45,3.25-.72,1.04-.27,1.99-.48,2.83-.64,4.5-.84,8.48-1.43,11.91-1.78,3.43-.35,6.4-.61,8.92-.79,2.52-.17,4.69-.22,6.53-.12,1.84,.09,3.47,.08,4.91-.04,1.46,.02,2.67-.5,3.64-1.55,.97-1.05,1.59-2.22,1.86-3.51,.27-1.29,.26-2.49-.01-3.6-.28-1.11-.94-1.72-1.98-1.82-1.04-.1-2.62-.35-4.73-.76-2.12-.41-4.87-.7-8.25-.87-3.38-.17-7.42-.15-12.12,.07-4.7,.22-10,.88-15.91,1.98,.07-7.44-.26-13.5-.98-18.17-.73-4.67-1.54-7.5-2.46-8.5-.86-.71-2.09-1.03-3.67-.96-1.59,.08-3.21,.38-4.86,.9-1.65,.53-3.17,1.17-4.56,1.94-1.39,.77-2.23,1.54-2.52,2.33-1.04,2.24-1.98,6.02-2.81,11.34-.83,5.33-1.53,11.54-2.1,18.64-2.32,.87-4.68,1.67-7.09,2.41-2.41,.74-4.94,1.43-7.59,2.07-3.64,.82-7.02,1.42-10.16,1.78-3.14,.36-6.07,.66-8.8,.87-.84,.16-1.72,.72-2.64,1.69-.91,.97-1.62,2.05-2.13,3.24-.51,1.19-.73,2.32-.68,3.4,.06,1.08,.7,1.8,1.93,2.15,2.16,.62,5.34,1.08,9.55,1.39,4.21,.31,8.56,.04,13.07-.79,1.97-.37,4.13-.91,6.47-1.64,2.34-.73,4.68-1.45,7.02-2.18-.45,8.54-.74,17.37-.86,26.49-.12,9.13-.18,17.66-.15,25.6,0,.95,0,1.89,.01,2.81-.53,.59-1.03,1.3-1.49,2.16-1.33,3.02-3.49,7.1-6.46,12.24-2.98,5.14-6.28,10.28-9.92,15.4-3.64,5.12-7.31,9.63-11.03,13.53-3.72,3.9-6.99,6.11-9.8,6.63-.99,.18-1.96,.04-2.92-.44-.96-.48-1.96-1.49-2.97-3.05-.97-1.27-1.56-3.28-1.77-6.01-.22-2.73-.22-5.68,0-8.85,.21-3.17,.51-6.43,.91-9.78,.39-3.35,.71-6.36,.94-9.03,.23-2.67,.68-6.14,1.34-10.41,.66-4.27,1.27-8.43,1.83-12.47,.56-4.04,1-7.54,1.32-10.52,.32-2.97,.39-4.52,.23-4.63-.31-.09-1.34,.07-3.08,.46-1.75,.4-3.64,.97-5.69,1.71-2.05,.75-4,1.59-5.87,2.51-1.87,.93-3.07,1.88-3.62,2.86-1.73,3.24-2.94,7.91-3.62,14-.69,6.1-1,12.46-.93,19.08,0,.97,.04,1.93,.06,2.89-1.22,2.28-2.66,4.86-4.31,7.73-3.25,5.63-6.94,11.24-11.08,16.81-4.13,5.58-8.52,10.58-13.16,15.01-4.64,4.44-9.14,7.06-13.5,7.87-2.4,.45-4.92,.55-7.59,.32-2.67-.23-5.21-1-7.64-2.29-2.43-1.3-4.62-3.29-6.58-5.99-1.96-2.69-3.3-6.38-4.02-11.05-1.36-8.05-1.26-15.35,.29-21.91,1.55-6.55,3.67-12.16,6.38-16.81,2.7-4.66,5.52-8.31,8.45-10.97,2.93-2.66,5.03-4.1,6.29-4.34,1.27-.24,2.25-.05,2.94,.54,.69,.6,1.13,1.39,1.32,2.38,.18,.99,.11,1.95-.23,2.88-.34,.94-.89,1.69-1.65,2.27-1.02,.77-1.92,1.45-2.68,2.03-.77,.58-1.41,1.43-1.93,2.54-.18,.62-.21,1.79-.11,3.52s.42,3.46,.96,5.17c.54,1.72,1.39,3.17,2.55,4.33,1.16,1.17,2.66,1.58,4.49,1.24,2.25-.42,4.23-1.37,5.92-2.85,1.69-1.48,3.06-3.3,4.12-5.47,1.05-2.16,1.77-4.55,2.16-7.18,.39-2.62,.34-5.2-.13-7.73-.86-5.38-3.16-9.32-6.9-11.83-3.74-2.51-7.87-3.34-12.38-2.5-8.03,1.49-14.6,4.94-19.71,10.33-5.11,5.4-9.05,11.45-11.81,18.15-2.76,6.71-4.52,13.48-5.29,20.32-.76,6.85-.74,12.45,.07,16.81,.81,4.37,2.13,8.67,3.94,12.93,1.81,4.25,4.29,7.98,7.44,11.18,3.14,3.2,7.01,5.58,11.6,7.13,4.58,1.55,9.97,1.75,16.17,.6,4.5-.84,8.89-2.71,13.16-5.62,4.27-2.91,8.29-6.35,12.06-10.33,3.77-3.98,7.31-8.28,10.6-12.9,3.29-4.62,6.18-9.09,8.65-13.41,.75-1.3,1.45-2.56,2.13-3.8,.04,.4,.08,.8,.12,1.2,.72,6.2,1.62,11.03,2.69,14.47,.58,2.37,1.72,4.53,3.39,6.47,1.67,1.95,3.61,3.55,5.81,4.82,2.2,1.27,4.55,2.14,7.04,2.62,2.49,.48,4.92,.43,7.29-.16,2.93-.69,6.42-3.24,10.49-7.63,4.06-4.4,8.09-9.55,12.09-15.47,4-5.91,7.67-11.99,11.03-18.22,.7-1.3,1.35-2.55,1.97-3.77,0,.11,0,.23,.01,.34,.24,6,.5,10.14,.78,12.42,.21,2.73,.97,5.61,2.26,8.65,1.29,3.04,3.07,5.73,5.33,8.08,2.26,2.35,5.11,4.15,8.54,5.4,3.44,1.25,7.48,1.45,12.13,.58,3.24-.6,6.92-3.11,11.06-7.52,4.13-4.41,8.23-9.8,12.29-16.16,1.49-2.33,2.92-4.72,4.32-7.15,1.07,6.97,3.5,12.39,7.31,16.24,4.03,4.06,9.94,5.87,17.73,5.44,3.17-.15,6.11-1.03,8.8-2.62,2.69-1.59,5.12-3.61,7.29-6.05,2.17-2.44,4.06-5.2,5.67-8.27,1.61-3.07,3.06-6.25,4.34-9.55-.18,2.95-.32,5.93-.42,8.93-.1,3.01-.22,6.05-.38,9.14-.6,6.96-1.18,14.79-1.75,23.49-.64,7.55-1.28,16.41-1.94,26.58-.66,10.17-1.5,21.48-2.54,33.91,.85,1.44,1.78,2.54,2.8,3.3,1.01,.76,1.94,1.42,2.78,2,.98,.55,2.01,1.01,3.1,1.39,2.74,.65,5.23,.48,7.44-.51,2.22-1,3.35-3.32,3.4-6.97,0-14.86,.13-28.07,.38-39.63,.25-11.56,.49-21.44,.71-29.63,.29-9.38,.64-17.68,1.05-24.89,.12-8.76,.5-16.7,1.14-23.81s1.32-13.47,2.02-19.06c.71-5.59,1.35-10.34,1.94-14.24,.59-3.9,.87-7.08,.84-9.55-.16-4.78-.9-8.14-2.2-10.08Z"/></g></g></g></g></svg>